<svg xmlns="http://www.w3.org/2000/svg" width="989.75px" height="538.125px" class="sequence hand"><desc>Basic OAuth Flow</desc><defs><marker viewBox="0 0 5 5" markerWidth="5" markerHeight="5" orient="auto" refX="5" refY="2.5" id="markerArrowBlock"><path d="M 0 0 L 5 2.5 L 0 5 z"/></marker><marker viewBox="0 0 9.6 16" markerWidth="4" markerHeight="16" orient="auto" refX="9.6" refY="8" id="markerArrowOpen"><path d="M 9.6,8 1.92,16 0,13.7 5.76,8 0,2.286 1.92,0 9.6,8 z"/></marker></defs><g class="title"><path d="M10,10C115.6,3.1 58.8,16.9 183.6,10.0C184.7,17.2 182.5,14.4 183.6,37.3C85.9,44.3 142.0,30.4 10.0,37.3C11.1,21.2 8.9,30.8 10.0,10.0" stroke="#000000" fill="#ffffff" style="stroke-width: 2;"/><text x="15" y="29" style="font-size: 16px; font-family: danielbd;"><tspan x="15">Basic OAuth Flow</tspan></text></g><g class="actor"><path d="M10,47.34375C29.5,50.6 71.8,44.1 91.3,47.3C92.7,53.5 89.8,56.1 91.3,84.0C78.3,80.8 71.8,87.3 10.0,84.0C8.5,73.1 11.5,71.1 10.0,47.3" stroke="#000000" fill="#ffffff" style="stroke-width: 2;"/><text x="20" y="70.3515625" style="font-size: 16px; font-family: danielbd;"><tspan x="20">Website</tspan></text></g><g class="actor"><path d="M10,481.4375C51.5,478.2 32.8,484.7 91.3,481.4C89.8,509.3 92.7,492.4 91.3,518.1C23.0,514.9 78.1,521.4 10.0,518.1C11.5,500.7 8.5,487.3 10.0,481.4" stroke="#000000" fill="#ffffff" style="stroke-width: 2;"/><text x="20" y="504.4453125" style="font-size: 16px; font-family: danielbd;"><tspan x="20">Website</tspan></text></g><path d="M50.6,84.0C66.5,324.6 34.7,247.7 50.6,481.4" stroke="#000000" fill="none" style="stroke-width: 2;"/><g class="actor"><path d="M543.765625,47.34375C559.2,44.8 592.5,49.9 608.0,47.3C609.4,64.4 606.5,74.7 608.0,84.0C561.2,86.6 554.0,81.5 543.8,84.0C542.3,53.2 545.2,56.1 543.8,47.3" stroke="#000000" fill="#ffffff" style="stroke-width: 2;"/><text x="553.765625" y="70.3515625" style="font-size: 16px; font-family: danielbd;"><tspan x="553.765625">User</tspan></text></g><g class="actor"><path d="M543.765625,481.4375C597.7,478.9 554.3,484.0 608.0,481.4C606.5,490.2 609.4,509.3 608.0,518.1C554.0,515.6 597.7,520.7 543.8,518.1C545.2,504.5 542.3,490.2 543.8,481.4" stroke="#000000" fill="#ffffff" style="stroke-width: 2;"/><text x="553.765625" y="504.4453125" style="font-size: 16px; font-family: danielbd;"><tspan x="553.765625">User</tspan></text></g><path d="M575.9,84.0C560.0,232.3 591.8,339.9 575.9,481.4" stroke="#000000" fill="none" style="stroke-width: 2;"/><g class="actor"><path d="M905.9375,47.34375C928.3,49.5 914.5,45.2 959.8,47.3C958.3,78.2 961.2,75.1 959.8,84.0C920.8,86.2 916.8,81.9 905.9,84.0C904.5,58.8 907.4,56.2 905.9,47.3" stroke="#000000" fill="#ffffff" style="stroke-width: 2;"/><text x="915.9375" y="70.6875" style="font-size: 16px; font-family: danielbd;"><tspan x="915.9375">IDP</tspan></text></g><g class="actor"><path d="M905.9375,481.4375C922.1,479.3 927.3,483.6 959.8,481.4C958.3,492.0 961.2,509.3 959.8,518.1C914.5,520.3 925.1,516.0 905.9,518.1C907.4,509.3 904.5,512.3 905.9,481.4" stroke="#000000" fill="#ffffff" style="stroke-width: 2;"/><text x="915.9375" y="504.78125" style="font-size: 16px; font-family: danielbd;"><tspan x="915.9375">IDP</tspan></text></g><path d="M932.8,84.0C948.7,417.9 916.9,181.5 932.8,481.4" stroke="#000000" fill="none" style="stroke-width: 2;"/><g class="note"><path d="M70.640625,104.03125C124.7,113.0 106.7,95.0 295.9,104.0C294.8,114.8 297.0,124.8 295.9,131.4C124.7,122.4 113.4,140.4 70.6,131.4C71.7,112.5 69.5,119.2 70.6,104.0" stroke="#000000" fill="#ffffff" style="stroke-width: 2;"/><text x="75.640625" y="123.03125" style="font-size: 16px; font-family: danielbd;"><tspan x="75.640625">OAuth Flow - first time</tspan></text></g><g class="signal"><text x="206.390625" y="159.0390625" style="font-size: 16px; font-family: danielbd;"><tspan x="206.390625">Can I have the webpage?</tspan></text><path d="M575.9,174.0C224.2,153.0 396.2,195.1 50.6,174.0" stroke="#000000" fill="none" style="stroke-width: 2; marker-end: url(&quot;#markerArrowBlock&quot;);"/></g><g class="signal"><text x="60.640625" y="201.7109375" style="font-size: 16px; font-family: danielbd;"><tspan x="60.640625">You need a signed token first; Go get one from this place:</tspan></text><path d="M50.6,216.7C491.8,237.7 134.7,195.7 575.9,216.7" stroke="#000000" fill="none" style="stroke-width: 2; marker-end: url(&quot;#markerArrowOpen&quot;);"/></g><g class="signal"><text x="355.625" y="246.71875" style="font-size: 16px; font-family: danielbd;"><tspan x="355.625">Website forwards User to IDP</tspan></text><path d="M50.6,253.4C680.8,288.7 233.1,218.1 932.8,253.4" stroke="#000000" fill="none" style="stroke-width: 2; marker-end: url(&quot;#markerArrowOpen&quot;);"/></g><g class="signal"><text x="656.203125" y="281.0703125" style="font-size: 16px; font-family: danielbd;"><tspan x="656.203125">You need to log in here</tspan></text><path d="M932.8,296.1C875.7,310.4 633.0,281.8 575.9,296.1" stroke="#000000" fill="none" style="stroke-width: 2; marker-end: url(&quot;#markerArrowOpen&quot;);"/></g><g class="signal"><text x="665.1171875" y="323.7421875" style="font-size: 16px; font-family: danielbd;"><tspan x="665.1171875">Log In (Authenticate)</tspan></text><path d="M575.9,338.8C795.7,353.0 743.5,324.5 932.8,338.8" stroke="#000000" fill="none" style="stroke-width: 2; marker-end: url(&quot;#markerArrowOpen&quot;);"/></g><g class="signal"><text x="585.859375" y="369.078125" style="font-size: 16px; font-family: danielbd;"><tspan x="585.859375">Here is an Auth Token for the Website</tspan></text><path d="M932.8,376.1C875.7,390.4 633.0,361.8 575.9,376.1" stroke="#000000" fill="none" style="stroke-width: 2; marker-end: url(&quot;#markerArrowOpen&quot;);"/></g><g class="signal"><text x="149.6640625" y="403.7578125" style="font-size: 16px; font-family: danielbd;"><tspan x="149.6640625">Can I have the webpage? (with Token)</tspan></text><path d="M575.9,418.8C363.0,397.8 249.8,439.8 50.6,418.8" stroke="#000000" fill="none" style="stroke-width: 2; marker-end: url(&quot;#markerArrowOpen&quot;);"/></g><g class="signal"><text x="182.6484375" y="446.4296875" style="font-size: 16px; font-family: danielbd;"><tspan x="182.6484375">That checks out! Here you go.</tspan></text><path d="M50.6,461.4C449.8,440.4 491.8,482.4 575.9,461.4" stroke="#000000" fill="none" style="stroke-width: 2; marker-end: url(&quot;#markerArrowOpen&quot;);"/></g></svg>